<svg width="17" height="17" viewBox="0 0 17 17" fill="none" xmlns="http://www.w3.org/2000/svg">
<g id="Group 1000018861">
<circle id="Ellipse 4055" cx="8.5" cy="8.5" r="8.5" fill="#D4DBFF"/>
<path id="&#240;&#159;&#142;&#168; Icon &#208;&#161;olor" d="M9.3248 8.50007L11.8289 5.99588C12.057 5.7678 12.057 5.39914 11.8289 5.17106C11.6009 4.94298 11.2322 4.94298 11.0041 5.17106L8.5 7.67526L5.99585 5.17106C5.76778 4.94298 5.39913 4.94298 5.17106 5.17106C4.94298 5.39914 4.94298 5.7678 5.17106 5.99588L7.6752 8.50007L5.17106 11.0043C4.94298 11.2323 4.94298 11.601 5.17106 11.8291C5.2848 11.9428 5.43413 12 5.58345 12C5.73278 12 5.88211 11.9428 5.99585 11.8291L8.5 9.32489L11.0041 11.8291C11.1179 11.9428 11.2672 12 11.4165 12C11.5659 12 11.7152 11.9428 11.8289 11.8291C12.057 11.601 12.057 11.2323 11.8289 11.0043L9.3248 8.50007Z" fill="#334BC2"/>
</g>
</svg>
