<svg width="22" height="22" viewBox="0 0 22 22" fill="none" xmlns="http://www.w3.org/2000/svg">
<g id="Group 1000018854">
<g id="Group 1000018863">
<circle id="Ellipse 4054" cx="10.6682" cy="10.6682" r="10.6682" fill="#FED8D8"/>
<path id="Vector" d="M11.3984 11L14.1884 8.20674C14.3209 8.0744 14.3953 7.89483 14.3955 7.70751C14.3957 7.5202 14.3215 7.34049 14.1893 7.20793C14.0571 7.07536 13.8778 7.00079 13.6907 7.00062C13.5036 7.00046 13.3241 7.07471 13.1917 7.20704L10.4016 10.0003L7.61159 7.20704C7.47918 7.07448 7.29959 7 7.11232 7C6.92506 7 6.74547 7.07448 6.61305 7.20704C6.48064 7.33961 6.40625 7.51941 6.40625 7.70689C6.40625 7.89437 6.48064 8.07417 6.61305 8.20674L9.40309 11L6.61305 13.7933C6.48064 13.9258 6.40625 14.1056 6.40625 14.2931C6.40625 14.4806 6.48064 14.6604 6.61305 14.793C6.74547 14.9255 6.92506 15 7.11232 15C7.29959 15 7.47918 14.9255 7.61159 14.793L10.4016 11.9997L13.1917 14.793C13.3241 14.9255 13.5037 15 13.6909 15C13.8782 15 14.0578 14.9255 14.1902 14.793C14.3226 14.6604 14.397 14.4806 14.397 14.2931C14.397 14.1056 14.3226 13.9258 14.1902 13.7933L11.3984 11Z" fill="#E01A1A"/>
</g>
</g>
</svg>
