<svg width="37" height="37" viewBox="0 0 37 37" fill="none" xmlns="http://www.w3.org/2000/svg">
<g id="Group 1000018853">
<circle id="Ellipse 4053" cx="18.5" cy="18.5" r="18.5" fill="#DEE3FE"/>
<path id="Vector" d="M18.658 17.3616H17.1219V19.4719H14.9543V20.9695H17.1219V23.0797H18.658V20.9695H20.8256V19.4724H18.658V17.3616ZM9.84721 13.5607L16.4079 11.3912H11.0601C10.7984 11.3825 10.5376 11.4241 10.2924 11.5136C10.0473 11.6031 9.82262 11.7387 9.63132 11.9127C9.44001 12.0868 9.28579 12.2958 9.17747 12.5278C9.06915 12.7599 9.00884 13.0104 9 13.2652V14.0835C9.2453 13.8584 9.53412 13.6829 9.84967 13.5674L9.84721 13.5607ZM22.8568 13.4085V9.99945L12.5808 13.4085H22.8568ZM26.558 14.1812H10.7344C10.2744 14.1812 9.83327 14.3591 9.508 14.6758C9.18273 14.9924 9 15.4219 9 15.8698V24.7554C9.00065 25.203 9.18359 25.6321 9.50872 25.9486C9.83385 26.2652 10.2746 26.4433 10.7344 26.4439H26.558C26.6278 26.4439 26.6968 26.4306 26.7612 26.4046C26.8256 26.3787 26.8842 26.3406 26.9335 26.2926C26.9828 26.2446 27.0219 26.1876 27.0485 26.1249C27.0752 26.0622 27.0889 25.995 27.0889 25.9271V14.6973C27.0888 14.5604 27.0328 14.4291 26.9332 14.3323C26.8337 14.2355 26.6987 14.1812 26.558 14.1812ZM21.6706 21.7905H19.503V23.9007H16.2774V21.7905H14.1103V18.6519H16.2774V16.5404H19.503V18.6519H21.6706V21.7905ZM25.9099 11.9164C25.9099 11.7839 25.8558 11.6568 25.7596 11.5631C25.6633 11.4694 25.5328 11.4168 25.3967 11.4168H23.6924V13.4085H25.9099V11.9164Z" fill="#334BC2"/>
</g>
</svg>
