<svg width="21" height="22" viewBox="0 0 21 22" fill="none" xmlns="http://www.w3.org/2000/svg">
<g id="mdi:user">
<path id="Vector" d="M10.5 4C11.4283 4 12.3185 4.36875 12.9749 5.02513C13.6313 5.6815 14 6.57174 14 7.5C14 8.42826 13.6313 9.3185 12.9749 9.97487C12.3185 10.6313 11.4283 11 10.5 11C9.57174 11 8.6815 10.6313 8.02513 9.97487C7.36875 9.3185 7 8.42826 7 7.5C7 6.57174 7.36875 5.6815 8.02513 5.02513C8.6815 4.36875 9.57174 4 10.5 4ZM10.5 12.75C14.3675 12.75 17.5 14.3162 17.5 16.25V18H3.5V16.25C3.5 14.3162 6.6325 12.75 10.5 12.75Z" fill="#334BC2"/>
</g>
</svg>
